<svg width="157" height="48" viewBox="0 0 157 48" fill="none" xmlns="http://www.w3.org/2000/svg">
<path fill-rule="evenodd" clip-rule="evenodd" d="M0.136941 0.0986328L27.4737 0.105924C27.4716 2.56722 27.4695 5.02956 27.4674 7.49086C15.4495 8.65745 9.38217 14.3206 7.68436 23.2846L27.4789 23.3169L27.4727 30.5331C18.3597 30.5425 9.24676 30.5518 0.133816 30.5612C-0.667173 20.9754 2.1139 13.1842 8.84991 7.37524L0.128608 7.36691L0.136941 0.0986328Z" fill="#FFFDFD"/>
<path fill-rule="evenodd" clip-rule="evenodd" d="M47.6057 0.161133C37.6386 6.49613 33.5764 16.9819 33.9139 30.5602C36.2241 30.5581 38.5344 30.556 40.8447 30.5529C40.8426 28.0562 41.0342 25.647 41.4019 23.3159C43.4612 23.2982 45.5204 23.2794 47.5796 23.2617C49.6389 23.2794 51.6981 23.2982 53.7574 23.3159C54.125 25.6459 54.3156 28.0562 54.3146 30.5529C56.6249 30.555 58.9351 30.5571 61.2454 30.5602C61.6027 16.9819 57.5561 6.49613 47.6057 0.161133ZM47.5796 16.8684C46.0454 16.8673 44.51 16.8663 42.9758 16.8652C43.8549 13.6436 45.3787 10.8302 47.5484 8.42726C49.7389 10.8302 51.2836 13.6436 52.1845 16.8652C50.6503 16.8663 49.1149 16.8673 47.5807 16.8684H47.5796Z" fill="#FFFDFD"/>
<path fill-rule="evenodd" clip-rule="evenodd" d="M86.6718 11.7464C81.9742 5.01348 75.8715 0.748139 67.6699 0.167969C67.6699 10.3017 67.6699 20.4354 67.6699 30.5691C70.3479 30.5701 73.0248 30.5722 75.7027 30.5733C75.7048 23.8956 75.7059 17.2179 75.7079 10.5412C80.4305 14.5556 84.1397 19.3719 86.6718 25.1195C89.2039 19.3719 92.9131 14.5556 97.6357 10.5412C97.6377 17.2189 97.6388 23.8966 97.6409 30.5733C100.319 30.5722 102.996 30.5701 105.674 30.5691C105.674 20.4354 105.674 10.3017 105.674 0.167969C97.4721 0.748139 91.3694 5.01244 86.6718 11.7464Z" fill="#FFFDFD"/>
<path fill-rule="evenodd" clip-rule="evenodd" d="M120.079 0.133789L120.084 30.5526L112.049 30.5547L112.054 5.00951L120.079 0.133789Z" fill="#FFFDFD"/>
<path fill-rule="evenodd" clip-rule="evenodd" d="M126.571 0.10958C126.561 10.2402 126.551 20.3708 126.541 30.5013C128.943 30.518 131.345 30.5336 133.748 30.5503C133.758 23.2174 133.768 15.8856 133.778 8.55278C143.475 11.4943 149.03 18.473 149.35 30.5545C151.776 30.5576 154.202 30.5597 156.628 30.5628C156.633 20.4114 156.638 10.26 156.643 0.107497C154.246 0.104372 151.851 0.102289 149.454 0.0991639C149.452 3.33645 149.45 6.57374 149.449 9.80999C143.342 2.87294 135.85 -0.68516 126.571 0.10958Z" fill="#FFFDFD"/>
<path fill-rule="evenodd" clip-rule="evenodd" d="M0.136328 0.0986328C0.133203 2.52139 0.130078 4.94415 0.126953 7.36691C3.03405 7.37003 5.94115 7.37211 8.84826 7.37524C13.349 3.0224 19.083 0.302786 27.4731 0.105924C18.3612 0.103841 9.24823 0.101758 0.136328 0.0986328Z" fill="#D4D4D5"/>
<path fill-rule="evenodd" clip-rule="evenodd" d="M156.721 0.10996C154.299 0.106836 151.876 0.103711 149.453 0.100586C149.45 3.00769 149.364 6.80744 149.361 9.71454C153.714 14.2153 156.429 22.1731 156.625 30.5632C156.628 21.4513 156.718 9.22186 156.721 0.108919V0.10996Z" fill="#D4D4D5"/>
<path d="M24.9572 42.9766C24.9572 43.7505 24.7864 44.3172 24.4458 44.6744C24.1052 45.0317 23.6198 45.2109 22.9917 45.2109C22.3637 45.2109 21.8876 45.0317 21.547 44.6744C21.2064 44.3172 21.0356 43.7516 21.0356 42.9766V39.0654H20.043V43.0162C20.043 44.0224 20.3044 44.7869 20.8273 45.3098C21.3502 45.8327 22.0678 46.0941 22.9813 46.0941C23.8948 46.0941 24.6208 45.8327 25.1406 45.3098C25.6603 44.7869 25.9197 44.0224 25.9197 43.0162V39.0654H24.9572V42.9766Z" fill="white"/>
<path d="M32.2235 43.612C32.6537 43.4204 32.985 43.1443 33.2162 42.7829C33.4474 42.4225 33.5641 41.9902 33.5641 41.4871C33.5641 40.9841 33.4485 40.5508 33.2162 40.1872C32.985 39.8237 32.6537 39.5456 32.2235 39.3529C31.7934 39.1613 31.2736 39.0654 30.6653 39.0654H27.9551V46.0139H28.9477V43.8995H30.6653C30.8184 43.8995 30.9653 43.8932 31.107 43.8818L32.6017 46.0139H33.6839L32.035 43.687C32.0996 43.6641 32.1631 43.6391 32.2246 43.611L32.2235 43.612ZM30.6351 43.0558H28.9477V39.9289H30.6351C31.2705 39.9289 31.7517 40.0643 32.0798 40.3362C32.4069 40.608 32.5714 40.9913 32.5714 41.4882C32.5714 41.985 32.4079 42.3704 32.0798 42.6444C31.7527 42.9193 31.2705 43.0568 30.6351 43.0568V43.0558Z" fill="white"/>
<path d="M36.3772 40.6228C36.6251 40.3843 36.9199 40.1989 37.2605 40.0666C37.6011 39.9343 37.9698 39.8677 38.3677 39.8677C38.7656 39.8677 39.1208 39.9322 39.4552 40.0614C39.7895 40.1905 40.0989 40.3937 40.3832 40.6718L40.9988 40.0562C40.6811 39.6989 40.2936 39.4312 39.8374 39.2521C39.3812 39.0729 38.8781 38.9844 38.3281 38.9844C37.7782 38.9844 37.2886 39.0719 36.8387 39.2479C36.3887 39.4229 35.996 39.6718 35.6627 39.9926C35.3283 40.3135 35.069 40.6895 34.8836 41.1197C34.6982 41.5498 34.6055 42.0227 34.6055 42.5394C34.6055 43.056 34.6982 43.5289 34.8836 43.9591C35.069 44.3892 35.3273 44.7652 35.6575 45.0861C35.9887 45.4069 36.3783 45.6558 36.8293 45.8308C37.2793 46.0058 37.7719 46.0943 38.3084 46.0943C38.7979 46.0943 39.2729 46.0204 39.7333 45.8714C40.1936 45.7225 40.5947 45.5027 40.9394 45.2111V42.5008H39.9864V44.7611C39.8072 44.8788 39.6208 44.9715 39.4249 45.0371C39.0843 45.1527 38.7281 45.2111 38.3573 45.2111C37.9605 45.2111 37.5928 45.1454 37.2553 45.0121C36.9178 44.8798 36.6251 44.6934 36.3772 44.4517C36.1293 44.2101 35.9366 43.9257 35.8012 43.5976C35.6658 43.2706 35.5981 42.9175 35.5981 42.5404C35.5981 42.1633 35.6658 41.8009 35.8012 41.4728C35.9366 41.1457 36.1293 40.8624 36.3772 40.6238V40.6228Z" fill="white"/>
<path d="M47.6877 42.9766C47.6877 43.7505 47.5169 44.3172 47.1763 44.6744C46.8357 45.0317 46.3503 45.2109 45.7222 45.2109C45.0941 45.2109 44.6181 45.0317 44.2775 44.6744C43.9369 44.3172 43.7661 43.7516 43.7661 42.9766V39.0654H42.7734V43.0162C42.7734 44.0224 43.0349 44.7869 43.5578 45.3098C44.0806 45.8327 44.7983 46.0941 45.7118 46.0941C46.6253 46.0941 47.3513 45.8327 47.871 45.3098C48.3908 44.7869 48.6501 44.0224 48.6501 43.0162V39.0654H47.6877V42.9766Z" fill="white"/>
<path d="M49.5566 39.9289H51.9388V46.0139H52.922V39.9289H55.3042V39.0654H49.5566V39.9289Z" fill="white"/>
<path d="M57.7363 47.0067H58.5998L61.8756 37.6553H61.0121L57.7363 47.0067Z" fill="white"/>
<path d="M69.2411 41.041C68.8443 40.816 68.387 40.7035 67.8714 40.7035C67.435 40.7035 67.0361 40.8025 66.6757 41.0014C66.4278 41.1379 66.2143 41.3233 66.0351 41.5535V38.6484H65.082V46.0146H65.9955V45.1824C66.1768 45.4292 66.3955 45.6261 66.6559 45.7709C67.0163 45.973 67.4215 46.074 67.8714 46.074C68.3881 46.074 68.8443 45.9615 69.2411 45.7365C69.638 45.5115 69.9525 45.197 70.1838 44.7939C70.415 44.3897 70.5317 43.92 70.5317 43.3846C70.5317 42.8492 70.4161 42.3805 70.1838 41.9795C69.9525 41.5795 69.638 41.266 69.2411 41.041ZM69.3359 44.3616C69.1807 44.6428 68.9682 44.8595 68.7005 45.0116C68.4329 45.1636 68.1297 45.2397 67.7923 45.2397C67.4548 45.2397 67.1621 45.1636 66.8934 45.0116C66.6257 44.8595 66.4132 44.6428 66.258 44.3616C66.1028 44.0804 66.0247 43.7544 66.0247 43.3835C66.0247 43.0127 66.1028 42.6805 66.258 42.4055C66.4132 42.1305 66.6257 41.918 66.8934 41.7649C67.1611 41.6128 67.461 41.5368 67.7923 41.5368C68.1235 41.5368 68.4329 41.6128 68.7005 41.7649C68.9682 41.917 69.1807 42.1305 69.3359 42.4055C69.4911 42.6805 69.5692 43.0065 69.5692 43.3835C69.5692 43.7606 69.4911 44.0804 69.3359 44.3616Z" fill="white"/>
<path d="M73.607 44.9568L71.7717 40.7529H70.779L73.1007 46.0005L72.933 46.3713C72.8008 46.6755 72.6581 46.8879 72.506 47.0067C72.3539 47.1254 72.1623 47.1858 71.93 47.1858C71.7508 47.1858 71.5821 47.1525 71.4238 47.0869C71.2654 47.0202 71.1196 46.9244 70.9873 46.7994L70.5801 47.5139C70.7519 47.6723 70.9571 47.7931 71.1957 47.8764C71.4342 47.9587 71.679 48.0004 71.93 48.0004C72.2008 48.0004 72.4497 47.9556 72.6747 47.866C72.8997 47.7764 73.107 47.6264 73.2955 47.414C73.4841 47.2025 73.6549 46.9109 73.8069 46.54L76.3578 40.7529H75.4246L73.607 44.9568Z" fill="white"/>
<path d="M84.8042 39.0654H79.0566V39.9289H81.4388V46.0139H82.422V39.9289H84.8042V39.0654Z" fill="white"/>
<path d="M90.9202 39.0654H89.8379L87.9099 41.7309L85.9663 39.0654H84.8341L87.286 42.4527L84.6758 46.0139H85.8174L87.8735 43.1495L89.9567 46.0139H91.0983L88.4703 42.4204L90.9202 39.0654Z" fill="white"/>
<path d="M90.9707 39.9289H93.3539V46.0139H94.3361V39.9289H96.7182V39.0654H90.9707V39.9289Z" fill="white"/>
<path d="M101.676 40.6228C101.924 40.3843 102.219 40.1989 102.559 40.0666C102.9 39.9343 103.269 39.8677 103.667 39.8677C104.064 39.8677 104.42 39.9322 104.754 40.0614C105.088 40.1905 105.398 40.3937 105.682 40.6718L106.298 40.0562C105.98 39.6989 105.592 39.4312 105.136 39.2521C104.68 39.0729 104.177 38.9844 103.627 38.9844C103.077 38.9844 102.587 39.0719 102.137 39.2479C101.688 39.4229 101.295 39.6718 100.962 39.9926C100.627 40.3135 100.368 40.6895 100.182 41.1197C99.997 41.5498 99.9043 42.0227 99.9043 42.5394C99.9043 43.056 99.997 43.5289 100.182 43.9591C100.368 44.3892 100.626 44.7652 100.956 45.0861C101.288 45.4069 101.677 45.6558 102.128 45.8308C102.578 46.0058 103.071 46.0943 103.607 46.0943C104.097 46.0943 104.572 46.0204 105.032 45.8714C105.492 45.7225 105.895 45.5027 106.238 45.2111V42.5008H105.285V44.7611C105.106 44.8788 104.92 44.9715 104.724 45.0371C104.383 45.1527 104.027 45.2111 103.656 45.2111C103.259 45.2111 102.892 45.1454 102.554 45.0121C102.217 44.8798 101.924 44.6934 101.676 44.4517C101.428 44.2101 101.235 43.9257 101.1 43.5976C100.965 43.2706 100.897 42.9175 100.897 42.5404C100.897 42.1633 100.965 41.8009 101.1 41.4728C101.235 41.1457 101.428 40.8624 101.676 40.6238V40.6228Z" fill="white"/>
<path d="M112.403 43.612C112.833 43.4204 113.165 43.1443 113.396 42.7829C113.627 42.4225 113.744 41.9902 113.744 41.4871C113.744 40.9841 113.628 40.5508 113.396 40.1872C113.165 39.8237 112.833 39.5456 112.403 39.3529C111.973 39.1613 111.453 39.0654 110.845 39.0654H108.135V46.0139H109.127V43.8995H110.845C110.998 43.8995 111.145 43.8932 111.287 43.8818L112.781 46.0139H113.864L112.215 43.687C112.279 43.6641 112.343 43.6391 112.404 43.611L112.403 43.612ZM110.815 43.0558H109.127V39.9289H110.815C111.45 39.9289 111.931 40.0643 112.259 40.3362C112.587 40.608 112.751 40.9913 112.751 41.4882C112.751 41.985 112.588 42.3704 112.259 42.6444C111.931 42.9193 111.45 43.0568 110.815 43.0568V43.0558Z" fill="white"/>
<path d="M121.122 39.9926C120.788 39.6718 120.397 39.4239 119.951 39.2479C119.504 39.0729 119.016 38.9844 118.486 38.9844C117.956 38.9844 117.457 39.074 117.007 39.2521C116.557 39.4312 116.166 39.6802 115.835 40.002C115.504 40.3228 115.246 40.6988 115.061 41.129C114.876 41.5592 114.783 42.029 114.783 42.5383C114.783 43.0476 114.876 43.5174 115.061 43.9476C115.247 44.3778 115.505 44.7538 115.835 45.0746C116.166 45.3954 116.558 45.6454 117.011 45.8246C117.464 46.0037 117.956 46.0922 118.485 46.0922C119.014 46.0922 119.503 46.0047 119.95 45.8287C120.396 45.6537 120.787 45.4048 121.121 45.084C121.456 44.7632 121.713 44.3871 121.895 43.957C122.078 43.5268 122.168 43.0539 122.168 42.5373C122.168 42.0206 122.078 41.5477 121.895 41.1176C121.713 40.6874 121.455 40.3124 121.121 39.9906L121.122 39.9926ZM120.973 43.6007C120.838 43.9247 120.649 44.208 120.408 44.4496C120.166 44.6913 119.882 44.8777 119.554 45.01C119.227 45.1423 118.87 45.209 118.486 45.209C118.102 45.209 117.736 45.1433 117.409 45.01C117.082 44.8777 116.796 44.6913 116.551 44.4496C116.306 44.208 116.115 43.9257 115.98 43.6007C115.845 43.2768 115.777 42.9227 115.777 42.5383C115.777 42.154 115.845 41.8009 115.98 41.4759C116.115 41.1519 116.306 40.8686 116.551 40.627C116.796 40.3853 117.082 40.1989 117.409 40.0666C117.736 39.9343 118.095 39.8677 118.486 39.8677C118.877 39.8677 119.226 39.9343 119.554 40.0666C119.882 40.1989 120.166 40.3864 120.408 40.627C120.649 40.8686 120.838 41.1519 120.973 41.4759C121.109 41.7998 121.177 42.154 121.177 42.5383C121.177 42.9227 121.109 43.2768 120.973 43.6007Z" fill="white"/>
<path d="M128.543 42.9766C128.543 43.7505 128.372 44.3172 128.032 44.6744C127.691 45.0317 127.206 45.2109 126.578 45.2109C125.95 45.2109 125.474 45.0317 125.133 44.6744C124.792 44.3172 124.622 43.7516 124.622 42.9766V39.0654H123.629V43.0162C123.629 44.0224 123.89 44.7869 124.413 45.3098C124.936 45.8327 125.654 46.0941 126.567 46.0941C127.481 46.0941 128.207 45.8327 128.726 45.3098C129.246 44.7869 129.506 44.0224 129.506 43.0162V39.0654H128.543V42.9766Z" fill="white"/>
<path d="M136.802 40.1872C136.571 39.8237 136.24 39.5456 135.809 39.3529C135.379 39.1613 134.86 39.0654 134.251 39.0654H131.541V46.0139H132.534V43.9099H134.251C134.86 43.9099 135.379 43.812 135.809 43.6172C136.24 43.4224 136.571 43.1443 136.802 42.7829C137.033 42.4225 137.15 41.9902 137.15 41.4871C137.15 40.9841 137.034 40.5508 136.802 40.1872ZM135.666 42.6392C135.339 42.911 134.856 43.0464 134.221 43.0464H132.534V39.9289H134.221C134.856 39.9289 135.338 40.0643 135.666 40.3362C135.993 40.608 136.157 40.9913 136.157 41.4882C136.157 41.985 135.994 42.3683 135.666 42.6402V42.6392Z" fill="white"/>
</svg>
